<svg width="494" height="489" viewBox="0 0 494 489" fill="none" xmlns="http://www.w3.org/2000/svg">
<path d="M417.263 472.902H87.8527V250.512C87.8527 233.516 94.6019 217.217 106.616 205.197C118.631 193.176 134.927 186.419 151.922 186.411H353.169C361.586 186.411 369.921 188.069 377.698 191.291C385.475 194.512 392.541 199.234 398.492 205.186C404.444 211.138 409.165 218.205 412.386 225.982C415.607 233.759 417.264 242.094 417.263 250.512V472.902Z" fill="#F2AC85"/>
<path d="M311.688 44.767H273.361V106.021H311.688V44.767Z" fill="#3B1534"/>
<path d="M249.608 309.47L312.958 186.411H186.265L249.608 309.47Z" fill="#FBDFA7"/>
<path d="M239.862 78.0153C259.078 78.0153 274.656 66.2832 274.656 51.8109C274.656 37.3385 259.078 25.6064 239.862 25.6064C220.646 25.6064 205.069 37.3385 205.069 51.8109C205.069 66.2832 220.646 78.0153 239.862 78.0153Z" fill="#3B1534"/>
<path d="M286.128 34.1201H166.716L163.614 112.721L240.995 101.011V140.589L213.595 164.542L284.696 147.57L286.128 34.1201Z" fill="#FBDFA7"/>
<path d="M191.807 10.8621C189.369 7.44399 186.137 4.6697 182.389 2.77811C178.641 0.886526 174.489 -0.0656728 170.291 0.00351858C166.093 0.0727099 161.975 1.16121 158.291 3.1753C154.607 5.18938 151.468 8.0687 149.144 11.5653C146.82 15.0619 145.381 19.0709 144.95 23.2472C144.52 27.4235 145.111 31.6419 146.672 35.5392C148.234 39.4364 150.719 42.8957 153.915 45.6191C157.11 48.3425 160.919 50.2484 165.015 51.1727C167.388 56.067 171.095 60.1908 175.711 63.0686C180.326 65.9463 185.661 67.4607 191.1 67.4371C207.014 67.4371 219.913 54.7634 219.913 39.1308C219.913 23.7547 207.396 11.2312 191.807 10.8621Z" fill="#3B1534"/>
<path d="M285.033 126.564H214.189V170.528H285.033V126.564Z" fill="#FBDFA7"/>
<path d="M240.995 101.011L284.345 85.2654" stroke="#3B1534" stroke-width="5" stroke-miterlimit="10" stroke-linecap="round"/>
<path d="M240.995 140.583L286.316 120.178" stroke="#3B1534" stroke-width="5" stroke-miterlimit="10" stroke-linecap="round"/>
<path d="M214.215 164.023L243.691 157.767C243.934 157.716 244.188 157.752 244.407 157.869C244.627 157.986 244.798 158.177 244.891 158.408C244.983 158.639 244.992 158.895 244.914 159.131C244.836 159.368 244.678 159.569 244.466 159.7L214.215 178.385V164.023Z" fill="#3B1534"/>
<path d="M285.033 170.522H214.189V186.405H285.033V170.522Z" fill="#FBDFA7"/>
<path d="M249.608 207.517L285.033 186.411H214.189L249.608 207.517Z" fill="#FBDFA7"/>
<path d="M91.6436 228.661L19.9677 396.178C19.9677 396.178 -9.3145 451.671 39.4849 478.47L103.21 386.107L91.6436 228.661Z" fill="#FBDFA7"/>
<path d="M168.676 218.681L157.387 301.199C156.93 304.539 159.268 307.618 162.609 308.075L207.443 314.209C210.784 314.666 213.863 312.328 214.32 308.987L225.609 226.47C226.066 223.129 223.728 220.05 220.387 219.593L175.552 213.459C172.212 213.002 169.133 215.34 168.676 218.681Z" fill="#FBDFA7"/>
<path d="M182.334 228.968C179.598 228.581 177.066 230.486 176.679 233.222C176.292 235.958 178.197 238.49 180.933 238.877L186.699 239.693C189.435 240.079 191.967 238.175 192.354 235.439C192.741 232.703 190.836 230.171 188.1 229.784L182.334 228.968Z" fill="#3B1534"/>
<path d="M205.249 230.661C202.511 230.286 199.987 232.203 199.613 234.941C199.238 237.679 201.154 240.203 203.893 240.577L209.663 241.367C212.401 241.741 214.925 239.825 215.299 237.087C215.674 234.349 213.758 231.825 211.019 231.45L205.249 230.661Z" fill="#3B1534"/>
<path d="M179.019 244.832C176.281 244.457 173.757 246.373 173.383 249.112C173.008 251.85 174.924 254.374 177.663 254.748L183.433 255.538C186.171 255.912 188.695 253.996 189.069 251.258C189.444 248.519 187.528 245.996 184.789 245.621L179.019 244.832Z" fill="#3B1534"/>
<path d="M202.857 248.09C200.119 247.715 197.596 249.631 197.221 252.369C196.846 255.108 198.762 257.631 201.501 258.006L207.271 258.795C210.009 259.17 212.533 257.254 212.908 254.515C213.282 251.777 211.366 249.254 208.628 248.879L202.857 248.09Z" fill="#3B1534"/>
<path d="M176.634 262.26C173.895 261.886 171.372 263.802 170.997 266.54C170.622 269.279 172.539 271.802 175.277 272.177L181.047 272.966C183.786 273.341 186.309 271.425 186.684 268.686C187.058 265.948 185.142 263.424 182.404 263.05L176.634 262.26Z" fill="#3B1534"/>
<path d="M200.478 265.519C197.74 265.144 195.216 267.06 194.842 269.799C194.467 272.537 196.383 275.061 199.122 275.435L204.892 276.225C207.63 276.599 210.154 274.683 210.528 271.945C210.903 269.206 208.987 266.683 206.248 266.308L200.478 265.519Z" fill="#3B1534"/>
<path d="M202.091 236.531H156.839C153.467 236.531 150.733 239.264 150.733 242.636V325.922C150.733 329.294 153.467 332.028 156.839 332.028H202.091C205.463 332.028 208.197 329.294 208.197 325.922V242.636C208.197 239.264 205.463 236.531 202.091 236.531Z" fill="#FBDFA7"/>
<path d="M170.351 249.542H164.527C161.763 249.542 159.522 251.783 159.522 254.546C159.522 257.31 161.763 259.551 164.527 259.551H170.351C173.115 259.551 175.355 257.31 175.355 254.546C175.355 251.783 173.115 249.542 170.351 249.542Z" fill="#3B1534"/>
<path d="M194.41 249.542H188.586C185.822 249.542 183.581 251.783 183.581 254.546C183.581 257.31 185.822 259.551 188.586 259.551H194.41C197.173 259.551 199.414 257.31 199.414 254.546C199.414 251.783 197.173 249.542 194.41 249.542Z" fill="#3B1534"/>
<path d="M170.351 267.133H164.527C161.763 267.133 159.522 269.373 159.522 272.137C159.522 274.901 161.763 277.141 164.527 277.141H170.351C173.115 277.141 175.355 274.901 175.355 272.137C175.355 269.373 173.115 267.133 170.351 267.133Z" fill="#3B1534"/>
<path d="M194.41 267.133H188.586C185.822 267.133 183.581 269.373 183.581 272.137C183.581 274.901 185.822 277.141 188.586 277.141H194.41C197.173 277.141 199.414 274.901 199.414 272.137C199.414 269.373 197.173 267.133 194.41 267.133Z" fill="#3B1534"/>
<path d="M170.351 284.729H164.527C161.763 284.729 159.522 286.97 159.522 289.734C159.522 292.498 161.763 294.738 164.527 294.738H170.351C173.115 294.738 175.355 292.498 175.355 289.734C175.355 286.97 173.115 284.729 170.351 284.729Z" fill="#3B1534"/>
<path d="M194.41 284.729H188.586C185.822 284.729 183.581 286.97 183.581 289.734C183.581 292.498 185.822 294.738 188.586 294.738H194.41C197.173 294.738 199.414 292.498 199.414 289.734C199.414 286.97 197.173 284.729 194.41 284.729Z" fill="#3B1534"/>
<path d="M412.734 228.661L484.41 396.178C484.41 396.178 513.692 451.671 464.893 478.47L401.167 386.107L412.734 228.661Z" fill="#FBDFA7"/>
<path d="M300.734 267.669L267.366 313.48C261.722 321.229 263.428 332.086 271.176 337.73L299.714 358.517C307.463 364.161 318.32 362.455 323.964 354.706L357.332 308.895C362.976 301.146 361.27 290.289 353.521 284.645L324.984 263.859C317.235 258.214 306.378 259.92 300.734 267.669Z" fill="#FBDFA7"/>
<path d="M356.515 290.397L318.282 262.247L322.798 256.104C323.445 255.226 324.414 254.641 325.491 254.477C326.569 254.313 327.668 254.583 328.547 255.228L360.156 278.493C360.591 278.812 360.959 279.214 361.238 279.675C361.518 280.137 361.704 280.649 361.785 281.182C361.866 281.716 361.842 282.26 361.713 282.784C361.583 283.308 361.352 283.801 361.032 284.235L356.515 290.397Z" fill="#FBDFA7"/>
<path d="M297.786 273.716L270.73 310.496L327.014 351.901L354.071 315.122L297.786 273.716Z" fill="#FBDFA7"/>
<path d="M330.924 256.999L324.262 266.05" stroke="#3B1534" stroke-width="5" stroke-miterlimit="10" stroke-linecap="round"/>
<path d="M337.667 261.959L331.005 271.011" stroke="#3B1534" stroke-width="5" stroke-miterlimit="10" stroke-linecap="round"/>
<path d="M344.411 266.92L337.749 275.972" stroke="#3B1534" stroke-width="5" stroke-miterlimit="10" stroke-linecap="round"/>
<path d="M351.154 271.881L344.492 280.939" stroke="#3B1534" stroke-width="5" stroke-miterlimit="10" stroke-linecap="round"/>
<path d="M357.898 276.847L351.236 285.899" stroke="#3B1534" stroke-width="5" stroke-miterlimit="10" stroke-linecap="round"/>
<path d="M249.608 200.824C249.563 191.049 249.515 181.269 249.464 171.485" stroke="#3B1534" stroke-width="5" stroke-miterlimit="10" stroke-linecap="round"/>
<path d="M410.626 342.906L338.18 389.76" stroke="#3B1534" stroke-width="5" stroke-miterlimit="10" stroke-linecap="round"/>
<path d="M391.146 326.022L329.617 366.971C328.376 367.801 327.516 369.089 327.225 370.553C326.934 372.017 327.236 373.537 328.065 374.778L338.237 389.841L410.907 342.549L398.634 327.186C397.755 326.095 396.5 325.371 395.115 325.156C393.73 324.94 392.315 325.249 391.146 326.022Z" fill="#FBDFA7"/>
<path d="M387.937 328.162C377.184 309.47 372.298 289.821 365.067 269.36L364.71 268.346C364.71 268.346 362.095 260.84 357.385 265.218C357.385 265.218 353.356 268.215 357.166 291.054C357.297 291.804 357.447 292.555 357.623 293.3C358.204 295.802 359.537 302.401 357.81 303.352C357.81 303.352 353.431 309.026 334.571 292.636L313.052 274.639C313.052 274.639 305.545 267.89 300.947 271.211C300.947 271.211 298.702 272.713 299.021 274.852C296.356 272.243 293.272 268.077 289.788 266.663C284.07 264.343 280.823 271.111 282.525 275.603C282.225 274.802 279.891 274.477 279.241 274.489C276.294 274.558 274.793 277.285 274.68 279.95C274.66 282.155 275.042 284.344 275.806 286.412C276.201 287.563 279.735 296.008 280.811 295.739C280.811 295.739 273.93 297.453 280.917 308.701C288.399 319.515 298.162 328.556 309.518 335.187L313.796 337.545C323.937 343.125 332.945 350.919 341.827 358.851L387.937 328.162Z" fill="#FBDFA7"/>
<path d="M299.008 274.852C299.008 274.852 307.366 293.281 324.912 302.476" stroke="#3B1534" stroke-width="5" stroke-miterlimit="10" stroke-linecap="round"/>
<path d="M282.512 275.603C282.512 275.603 290.745 303.79 315.535 313.311" stroke="#3B1534" stroke-width="5" stroke-miterlimit="10" stroke-linecap="round"/>
<path d="M279.985 295.27C279.985 295.27 292.884 316.614 309.468 323.676" stroke="#3B1534" stroke-width="5" stroke-miterlimit="10" stroke-linecap="round"/>
<path d="M382.951 85.1466C384.258 81.3108 383.988 77.1131 382.2 73.4765C380.412 69.8399 377.253 67.0623 373.418 65.7544C369.581 64.448 365.383 64.7192 361.746 66.5082C358.11 68.2972 355.332 71.4576 354.026 75.2941L347.489 94.4673L376.421 104.326L382.951 85.1466Z" fill="#FBDFA7"/>
<path d="M347.489 94.4673L340.958 113.634C340.311 115.534 340.044 117.543 340.173 119.545C340.302 121.548 340.824 123.506 341.709 125.307C343.498 128.944 346.658 131.722 350.494 133.03C354.331 134.337 358.53 134.067 362.167 132.278C365.805 130.49 368.582 127.33 369.89 123.493L376.421 104.326L347.489 94.4673Z" fill="#56CDB8"/>
<path d="M47.2542 30.7734C43.5801 29.0615 39.3765 28.8787 35.5676 30.2652C31.7587 31.6518 28.6563 34.4941 26.9425 38.1674C25.2327 41.8426 25.0518 46.0462 26.4393 49.8547C27.8269 53.6632 30.6696 56.7652 34.3428 58.4792L52.6966 67.0055L65.6017 39.2997L47.2542 30.7734Z" fill="#FBDFA7"/>
<path d="M83.9556 47.8761L65.6018 39.3248L52.6967 67.0055L71.0441 75.5568C74.7191 77.2683 78.9233 77.4502 82.7323 76.0624C86.5413 74.6747 89.6432 71.8309 91.3559 68.1565C93.0592 64.4852 93.2367 60.2881 91.8494 56.4861C90.462 52.684 87.6231 49.5876 83.9556 47.8761Z" fill="#EE5837"/>
<path d="M390.852 346.053C393.091 346.053 394.906 344.238 394.906 341.999C394.906 339.76 393.091 337.945 390.852 337.945C388.613 337.945 386.798 339.76 386.798 341.999C386.798 344.238 388.613 346.053 390.852 346.053Z" fill="#FBDFA7"/>
<path d="M118.699 181.182C117.736 179.371 116.419 177.772 114.825 176.481C113.232 175.19 111.395 174.233 109.424 173.667C107.453 173.101 105.388 172.937 103.352 173.186C101.317 173.434 99.3518 174.09 97.5749 175.114C95.798 176.138 94.2454 177.509 93.0095 179.145C91.7736 180.782 90.8797 182.651 90.3811 184.64C89.8825 186.629 89.7894 188.698 90.1074 190.724C90.4253 192.75 91.1477 194.692 92.2316 196.433L102.334 213.948L128.82 198.697L118.699 181.182Z" fill="#FBDFA7"/>
<path d="M128.801 198.722L102.315 213.973L112.418 231.526C113.417 233.267 114.75 234.795 116.34 236.02C117.93 237.246 119.747 238.146 121.685 238.669C123.623 239.192 125.646 239.327 127.636 239.068C129.627 238.808 131.547 238.159 133.287 237.156C135.028 236.157 136.555 234.824 137.781 233.234C139.006 231.644 139.906 229.828 140.429 227.889C140.952 225.951 141.088 223.929 140.828 221.938C140.569 219.947 139.919 218.027 138.917 216.288L128.801 198.722Z" fill="#3053AD"/>
<path d="M22.4636 184.854C34.87 184.854 44.9273 174.796 44.9273 162.39C44.9273 149.984 34.87 139.926 22.4636 139.926C10.0573 139.926 0 149.984 0 162.39C0 174.796 10.0573 184.854 22.4636 184.854Z" fill="#FBDFA7"/>
<path d="M30.502 143.974L11.7729 179.549" stroke="#FBDFA7" stroke-width="5" stroke-miterlimit="10" stroke-linecap="round"/>
<path d="M364.341 243.28C376.747 243.28 386.805 233.223 386.805 220.817C386.805 208.41 376.747 198.353 364.341 198.353C351.935 198.353 341.878 208.41 341.878 220.817C341.878 233.223 351.935 243.28 364.341 243.28Z" fill="#FBDFA7"/>
<path d="M345.531 211.39L383.227 230.281" stroke="#FBDFA7" stroke-width="5" stroke-miterlimit="10" stroke-linecap="round"/>
<path d="M248.276 247.803C250.183 247.803 251.729 246.257 251.729 244.35C251.729 242.443 250.183 240.897 248.276 240.897C246.369 240.897 244.823 242.443 244.823 244.35C244.823 246.257 246.369 247.803 248.276 247.803Z" fill="#FBDFA7"/>
<path d="M248.276 274.039C250.183 274.039 251.729 272.493 251.729 270.586C251.729 268.679 250.183 267.133 248.276 267.133C246.369 267.133 244.823 268.679 244.823 270.586C244.823 272.493 246.369 274.039 248.276 274.039Z" fill="#FBDFA7"/>
<path d="M311.695 48.2951C311.695 37.3071 307.33 26.7691 299.56 18.9994C291.79 11.2297 281.252 6.86472 270.264 6.86472H185.377V48.2951H266.379V63.3084C266.379 69.2147 268.726 74.8791 272.902 79.0555C277.079 83.2319 282.743 85.5781 288.649 85.5781H301.567V48.2951H311.695Z" fill="#3B1534"/>
<path d="M292.402 123.674C304.08 123.674 313.546 114.208 313.546 102.531C313.546 90.8533 304.08 81.387 292.402 81.387C280.725 81.387 271.259 90.8533 271.259 102.531C271.259 114.208 280.725 123.674 292.402 123.674Z" fill="#FBDFA7"/>
<path d="M292.859 109.781C295.799 109.781 298.183 107.397 298.183 104.457C298.183 101.517 295.799 99.1339 292.859 99.1339C289.919 99.1339 287.536 101.517 287.536 104.457C287.536 107.397 289.919 109.781 292.859 109.781Z" stroke="#3B1534" stroke-width="5" stroke-miterlimit="10" stroke-linecap="round"/>
<path d="M299.509 94.1795C299.509 94.1795 289.713 95.5682 288.105 102.068" stroke="#3B1534" stroke-width="5" stroke-miterlimit="10" stroke-linecap="round"/>
<path d="M214.189 186.067L249.608 200.824L285.033 186.067" stroke="#3B1534" stroke-width="5" stroke-miterlimit="10" stroke-linecap="round"/>
<path d="M51.8834 394.614C32.9729 418.291 17.9158 455.049 39.4787 478.438C39.6976 478.607 40.0104 478.851 40.392 479.133C45.8319 483.118 52.0626 485.891 58.6644 487.265C64.5494 488.559 70.6107 488.851 76.5928 488.128C90.8304 486.433 102.722 480.421 112.03 469.462C117.535 462.981 121.726 455.599 126.456 448.587L149.539 414.4L166.353 389.497L93.5703 342.437L51.8834 394.614Z" fill="#FBDFA7"/>
<path d="M452.494 394.614L410.914 342.562L338.243 389.854L354.814 414.4L377.897 448.593C382.626 455.606 386.824 462.981 392.322 469.468C401.63 480.428 413.522 486.439 427.766 488.134C433.752 488.86 439.818 488.568 445.707 487.271C452.31 485.899 458.541 483.126 463.979 479.139C464.361 478.857 464.674 478.613 464.893 478.445C486.462 455.049 471.411 418.291 452.494 394.614Z" fill="#FBDFA7"/>
<path d="M410.914 342.562L469.303 415.533" stroke="#3B1534" stroke-width="5" stroke-miterlimit="10" stroke-linecap="round"/>
<path d="M116.753 328.931C125.599 308.231 132.079 289.821 139.311 269.335L139.667 268.321C139.667 268.321 142.282 260.814 146.992 265.193C146.992 265.193 151.021 268.19 147.211 291.029C147.086 291.779 146.93 292.53 146.755 293.274C146.173 295.777 144.841 302.376 146.567 303.327C146.567 303.327 150.946 309.001 169.806 292.611L191.338 274.62C191.338 274.62 198.845 267.871 203.442 271.192C203.442 271.192 205.694 272.694 205.369 274.833C208.034 272.225 211.124 268.058 214.609 266.645C220.32 264.324 223.567 271.092 221.865 275.584C222.172 274.783 224.499 274.458 225.149 274.47C228.096 274.539 229.597 277.267 229.709 279.931C229.73 282.136 229.348 284.326 228.583 286.393C228.189 287.544 224.655 295.989 223.579 295.72C223.579 295.72 230.46 297.434 223.473 308.682C215.991 319.496 206.228 328.537 194.872 335.168L190.594 337.526C180.453 343.106 173.241 350.269 163.244 359.314L116.753 328.931Z" fill="#FBDFA7"/>
<path d="M205.369 274.852C205.369 274.852 197.018 293.281 179.465 302.476" stroke="#3B1534" stroke-width="5" stroke-miterlimit="10" stroke-linecap="round"/>
<path d="M221.865 275.603C221.865 275.603 213.639 303.79 188.848 313.311" stroke="#3B1534" stroke-width="5" stroke-miterlimit="10" stroke-linecap="round"/>
<path d="M224.392 295.27C224.392 295.27 211.493 316.601 194.91 323.676" stroke="#3B1534" stroke-width="5" stroke-miterlimit="10" stroke-linecap="round"/>
<path d="M240.106 99.159L163.613 112.721L162.306 145.875C162.165 149.397 162.811 152.905 164.196 156.146C165.582 159.386 167.671 162.278 170.314 164.609C172.957 166.941 176.086 168.654 179.473 169.625C182.861 170.596 186.423 170.8 189.899 170.222L213.595 164.592L243.791 141.446C244.147 141.176 244.433 140.822 244.624 140.417C244.814 140.012 244.904 139.567 244.885 139.119L243.39 101.78C243.371 101.383 243.267 100.995 243.086 100.641C242.904 100.288 242.65 99.9766 242.339 99.7287C242.029 99.4809 241.669 99.3019 241.284 99.2036C240.899 99.1054 240.498 99.0902 240.106 99.159Z" fill="#FBDFA7"/>
<path d="M164.383 128.278L216.848 118.67" stroke="#FBDFA7" stroke-width="5" stroke-miterlimit="10" stroke-linecap="round"/>
<path d="M163.614 145.863L196.63 139.044" stroke="#FBDFA7" stroke-width="5" stroke-miterlimit="10" stroke-linecap="round"/>
<path d="M105.043 328.074L93.5703 342.462L166.378 389.522C169.456 384.956 172.536 380.393 175.618 375.835C176.122 375.087 176.474 374.248 176.652 373.364C176.831 372.48 176.833 371.569 176.659 370.684C176.485 369.8 176.137 368.958 175.636 368.208C175.136 367.458 174.492 366.814 173.741 366.314C160.329 357.387 127.062 335.255 114.176 326.673C112.754 325.722 111.028 325.338 109.337 325.597C107.646 325.857 106.114 326.74 105.043 328.074Z" fill="#FBDFA7"/>
<path d="M113.525 346.053C115.764 346.053 117.579 344.238 117.579 341.999C117.579 339.76 115.764 337.945 113.525 337.945C111.287 337.945 109.472 339.76 109.472 341.999C109.472 344.238 111.287 346.053 113.525 346.053Z" fill="#FBDFA7"/>
<path d="M93.5703 342.437L42.0184 408.896" stroke="#3B1534" stroke-width="5" stroke-miterlimit="10" stroke-linecap="round"/>
</svg>
