<svg width="54" height="54" viewBox="0 0 54 54" fill="none" xmlns="http://www.w3.org/2000/svg">
<path fill-rule="evenodd" clip-rule="evenodd" d="M0.512975 10.9207C-0.170992 11.6047 -0.170992 12.7136 0.512975 13.3976C1.19694 14.0814 2.30586 14.0816 2.98983 13.3976L4.22904 12.1582L10.4204 18.3497L5.46672 23.3036C4.7827 23.9876 4.7827 25.0965 5.46672 25.7805C6.15058 26.4645 7.25947 26.4645 7.94348 25.7805L10.4198 23.304L31.4737 44.3584C34.0127 46.8975 37.7232 47.5514 40.8655 46.3202L42.6192 48.0739C43.5363 48.991 44.8353 49.2933 46.0041 48.9807L50.0502 53.027C50.7341 53.711 51.843 53.711 52.527 53.027C53.211 52.3429 53.211 51.2341 52.527 50.55L48.4803 46.5032C48.7919 45.3348 48.4895 44.0367 47.573 43.1201L45.8195 41.3665C47.051 38.2239 46.3971 34.5131 43.8579 31.9738L22.804 10.9195L25.2814 8.44209C25.9654 7.75808 25.9654 6.64919 25.2814 5.96518C24.5976 5.28118 23.4885 5.28119 22.8047 5.96518L17.8508 10.919L11.6596 4.72755L12.8972 3.4899C13.5812 2.80592 13.5812 1.69697 12.8972 1.01299C12.2133 0.329005 11.1044 0.329005 10.4204 1.01299L0.512975 10.9207ZM15.7102 13.0596L9.51903 6.86821L6.36961 10.0176L12.561 16.2092L15.7102 13.0596ZM20.6635 13.0602L12.5604 21.1634L19.2294 27.8325L27.3325 19.7293L20.6635 13.0602ZM21.7062 30.3094L25.4216 34.0249L28.235 31.2115C28.919 30.5275 30.0279 30.5275 30.7119 31.2115C31.3959 31.8954 31.3959 33.0044 30.7119 33.6885L27.8985 36.5018L30.3746 38.9782L33.1883 36.1645C33.8724 35.4804 34.9812 35.4804 35.6653 36.1645C36.3491 36.8485 36.3491 37.9574 35.6653 38.6414L32.8516 41.4551L33.6143 42.2178C35.2764 43.8799 37.7056 44.3074 39.7624 43.5001L42.9997 40.2626C43.8069 38.2059 43.3795 35.7767 41.7174 34.1144L29.8093 22.2062L21.7062 30.3094ZM45.4744 45.3086C45.4616 45.292 45.4476 45.2759 45.4324 45.2606L44.185 44.0133C44.0797 44.1306 43.9707 44.2456 43.8579 44.3584C43.745 44.4713 43.6298 44.5804 43.5124 44.6858L44.7598 45.9333C44.7752 45.9486 44.7914 45.9627 44.8082 45.9755C44.8846 45.8396 44.9808 45.7119 45.0964 45.5962C45.2117 45.4809 45.339 45.3851 45.4744 45.3086V45.3086Z" fill="black"/>
</svg>
